<svg version="1.1" id="Layer_1" xmlns="http://www.w3.org/2000/svg" xmlns:xlink="http://www.w3.org/1999/xlink" x="0px" y="0px"
	 viewBox="0 0 64 64" enable-background="new 0 0 64 64" xml:space="preserve">
<g>
	<rect x="0" y="0" transform="matrix(-1.836970e-16 1 -1 -1.836970e-16 64 4.618528e-13)" fill="#FFFFFF" width="64" height="64"/>
	<g>
		<path fill="#231F20" d="M25.263,45.54c0.289-0.555,0.547-1.056,0.81-1.554c1.865-3.531,3.731-7.062,5.596-10.593
			c0.059-0.113,0.112-0.23,0.179-0.337c0.076-0.121,0.067-0.226,0.007-0.356c-0.478-1.031-0.954-2.064-1.42-3.101
			c-1.403-3.118-2.801-6.239-4.204-9.357c-0.19-0.423-0.404-0.835-0.596-1.257c-0.297-0.653-0.793-1.1-1.429-1.404
			c-0.589-0.281-1.216-0.437-1.861-0.506c-0.542-0.058-1.088-0.079-1.633-0.116c-0.044-0.003-0.088-0.007-0.151-0.013
			c0-0.405,0-0.8,0-1.235c4.2,0.004,8.39,0.041,12.599,0.043c0,0.386,0,0.747,0,1.133c-0.208,0.023-0.422,0.046-0.635,0.071
			c-0.445,0.053-0.878,0.151-1.283,0.35c-0.239,0.118-0.454,0.27-0.615,0.487c-0.242,0.325-0.269,0.688-0.168,1.066
			c0.037,0.14,0.09,0.277,0.15,0.409c1.102,2.426,2.205,4.852,3.31,7.276c0.272,0.596,0.552,1.188,0.829,1.781
			c0.019,0.041,0.044,0.079,0.08,0.143c0.05-0.081,0.094-0.143,0.128-0.21c1.415-2.851,2.803-5.716,4.098-8.625
			c0.124-0.278,0.197-0.587,0.241-0.889c0.075-0.517-0.133-0.923-0.579-1.202c-0.369-0.231-0.78-0.355-1.204-0.415
			c-0.522-0.074-1.048-0.113-1.573-0.166c-0.08-0.008-0.16-0.009-0.251-0.015c0-0.394,0-0.772,0-1.145
			c0.212-0.062,10.274-0.131,10.893-0.078c0,0.382,0,0.766,0,1.16c-0.308,0.043-0.615,0.071-0.915,0.132
			c-1.578,0.318-2.918,1.049-3.94,2.314c-0.142,0.175-0.27,0.368-0.368,0.571c-1.679,3.472-3.351,6.947-5.032,10.418
			c-0.097,0.199-0.098,0.36-0.009,0.561c1.131,2.542,2.253,5.089,3.381,7.633c0.837,1.887,1.68,3.772,2.521,5.657
			c0.036,0.081,0.075,0.16,0.133,0.281c0.064-0.134,0.111-0.227,0.152-0.322c3.171-7.318,6.341-14.636,9.511-21.954
			c0.361-0.834,0.719-1.671,1.089-2.501c0.078-0.175,0.073-0.318-0.011-0.487c-0.362-0.732-0.932-1.25-1.646-1.617
			c-0.695-0.358-1.438-0.561-2.219-0.616c-0.062-0.004-0.124-0.016-0.201-0.026c0-0.398,0-0.786,0-1.213
			c1.887-0.023,3.775,0.029,5.663,0.038c1.882,0.009,3.763,0.024,5.66,0.036c0,0.392,0,0.743,0,1.124
			c-0.095,0.015-0.181,0.035-0.267,0.04c-1.821,0.107-3.193,0.958-4.135,2.507c-0.212,0.348-0.392,0.719-0.555,1.093
			c-1.892,4.353-3.78,8.709-5.666,13.065c-2.657,6.134-5.312,12.268-7.968,18.401c-0.039,0.091-0.082,0.18-0.123,0.271
			c-0.406,0-0.796,0-1.214,0c-2.41-5.676-4.822-11.356-7.258-17.093c-1.003,1.93-1.979,3.811-2.957,5.692
			c-0.986,1.896-1.98,3.789-2.958,5.69c-0.974,1.892-1.931,3.793-2.907,5.713c-0.384,0-0.782-0.001-1.181,0.001
			c-0.133,0-0.157-0.106-0.196-0.195c-0.203-0.467-0.401-0.936-0.605-1.403c-2.811-6.444-5.623-12.887-8.432-19.33
			c-1.145-2.626-2.298-5.248-3.421-7.884c-0.52-1.219-1.223-2.313-2.074-3.319c-0.625-0.738-1.303-1.423-2.072-2.013
			c-0.413-0.317-0.847-0.598-1.317-0.823c-0.43-0.206-0.882-0.332-1.385-0.369c0-0.415,0-0.819,0-1.243c4.768,0,9.533,0,14.316,0
			c0,0.407,0,0.81,0,1.203c-0.404,0.073-0.791,0.126-1.169,0.214c-0.677,0.159-1.322,0.406-1.892,0.816
			c-0.183,0.132-0.357,0.285-0.505,0.455c-0.432,0.497-0.495,1.053-0.223,1.651c0.286,0.629,0.574,1.258,0.849,1.892
			c2.019,4.655,4.034,9.312,6.051,13.968c1.33,3.071,2.662,6.141,3.994,9.211C25.129,45.248,25.186,45.371,25.263,45.54z"/>
	</g>
</g>
</svg>